<svg width="142" height="34" viewBox="0 0 142 34" fill="none" xmlns="http://www.w3.org/2000/svg">
<path d="M40.2988 22.1543C40.2988 22.541 40.2308 22.96 40.0947 23.4111C39.9587 23.8551 39.7367 24.2705 39.4287 24.6572C39.1279 25.0368 38.7305 25.3555 38.2363 25.6133C37.7493 25.8711 37.1549 26 36.4531 26H31.415C31.0283 26 30.6094 25.932 30.1582 25.7959C29.7142 25.6598 29.2988 25.4414 28.9121 25.1406C28.5326 24.8327 28.2139 24.4352 27.9561 23.9482C27.6982 23.4541 27.5693 22.8561 27.5693 22.1543C27.5693 21.7676 27.6374 21.3486 27.7734 20.8975C27.9095 20.4463 28.1279 20.0309 28.4287 19.6514C28.7367 19.2646 29.1341 18.9424 29.6211 18.6846C30.1152 18.4268 30.7132 18.2979 31.415 18.2979H36.4531V20.9619H31.415C31.0355 20.9619 30.7419 21.0801 30.5342 21.3164C30.3265 21.5456 30.2227 21.832 30.2227 22.1758C30.2227 22.541 30.3408 22.8275 30.5771 23.0352C30.8206 23.2357 31.1071 23.3359 31.4365 23.3359H36.4531C36.8327 23.3359 37.1263 23.2214 37.334 22.9922C37.5417 22.763 37.6455 22.4766 37.6455 22.1328V18.2334C37.6455 17.8682 37.5309 17.5781 37.3018 17.3633C37.0798 17.1484 36.7969 17.041 36.4531 17.041H30.3193V14.3877H36.4531C36.8398 14.3877 37.2552 14.4557 37.6992 14.5918C38.1504 14.7279 38.5658 14.9499 38.9453 15.2578C39.332 15.5586 39.6543 15.9561 39.9121 16.4502C40.1699 16.9372 40.2988 17.5316 40.2988 18.2334V22.1543ZM54.9602 17.1807H50.0832V26H47.258V17.1807H43.6272V14.3877H47.258V10.5957H50.0832V14.3877H54.9602V17.1807ZM69.7612 26H62.188C61.8013 26 61.3787 25.932 60.9204 25.7959C60.4621 25.6598 60.036 25.4378 59.6421 25.1299C59.2554 24.8148 58.9295 24.4102 58.6645 23.916C58.4067 23.4147 58.2778 22.8024 58.2778 22.0791V18.2979C58.2778 18.0329 58.3065 17.7536 58.3638 17.46C58.4282 17.1663 58.5249 16.8763 58.6538 16.5898C58.7827 16.2962 58.9474 16.0169 59.1479 15.752C59.3556 15.487 59.6027 15.2542 59.8891 15.0537C60.1828 14.8532 60.5193 14.6921 60.8989 14.5703C61.2785 14.4486 61.7082 14.3877 62.188 14.3877H69.7612V17.1807H62.188C61.8227 17.1807 61.5434 17.2738 61.3501 17.46C61.1639 17.6462 61.0708 17.9326 61.0708 18.3193V22.0791C61.0708 22.4443 61.1675 22.7236 61.3608 22.917C61.5542 23.1104 61.8371 23.207 62.2095 23.207H69.7612V26ZM86.7429 26H83.9499V18.2979C83.9499 17.9326 83.8568 17.6569 83.6706 17.4707C83.4844 17.2773 83.2051 17.1807 82.8327 17.1807H77.7946V14.3877H82.8327C83.0977 14.3877 83.377 14.4199 83.6706 14.4844C83.9642 14.5417 84.2543 14.6348 84.5407 14.7637C84.8344 14.8926 85.1137 15.0609 85.3786 15.2686C85.6436 15.4691 85.8764 15.7161 86.0769 16.0098C86.2774 16.2962 86.4385 16.6292 86.5603 17.0088C86.682 17.3883 86.7429 17.818 86.7429 18.2979V26ZM76.6667 26H73.8737V9.47852H76.6667V26Z" fill="white"/>
<path d="M25.291 10.5957L22.7129 25.0332C22.6556 25.3197 22.5267 25.5667 22.3262 25.7744C22.1257 25.9821 21.8822 26.1146 21.5957 26.1719C21.3021 26.222 21.0228 26.1898 20.7578 26.0752C20.5 25.9606 20.2959 25.7816 20.1455 25.5381L15.0322 17.1377L9.9082 25.5381C9.78646 25.7458 9.61816 25.9069 9.40332 26.0215C9.19564 26.1361 8.97005 26.1934 8.72656 26.1934C8.38997 26.1934 8.09277 26.0859 7.83496 25.8711C7.57715 25.6562 7.4196 25.377 7.3623 25.0332L4.7627 10.5957H7.59863L9.44629 20.7686L13.8506 13.7432C13.9723 13.5355 14.137 13.3743 14.3447 13.2598C14.5596 13.1452 14.7887 13.0879 15.0322 13.0879C15.2757 13.0879 15.5013 13.1452 15.709 13.2598C15.9167 13.3743 16.0885 13.5355 16.2246 13.7432L20.6074 20.7686L22.4551 10.5957H25.291Z" fill="#9A5EBE"/>
<path d="M107.153 22.6162C107.153 22.96 107.092 23.3288 106.97 23.7227C106.856 24.1165 106.663 24.4818 106.39 24.8184C106.125 25.1549 105.778 25.4378 105.348 25.667C104.919 25.889 104.392 26 103.769 26H93.1667C92.9662 26 92.78 25.9642 92.6082 25.8926C92.4363 25.821 92.2859 25.7243 92.157 25.6025C92.0352 25.4736 91.9386 25.3232 91.8669 25.1514C91.7953 24.9795 91.7595 24.7933 91.7595 24.5928V12.0029C91.7595 11.8096 91.7953 11.627 91.8669 11.4551C91.9386 11.2832 92.0352 11.1328 92.157 11.0039C92.2859 10.875 92.4363 10.7747 92.6082 10.7031C92.78 10.6315 92.9662 10.5957 93.1667 10.5957H102.512C102.856 10.5957 103.225 10.6566 103.619 10.7783C104.013 10.9001 104.378 11.097 104.715 11.3691C105.058 11.6341 105.341 11.9814 105.563 12.4111C105.792 12.8408 105.907 13.3672 105.907 13.9902V14.5166C105.907 15.0107 105.825 15.5443 105.66 16.1172C105.495 16.6829 105.23 17.2201 104.865 17.7285C105.18 17.9219 105.474 18.1546 105.746 18.4268C106.025 18.6989 106.269 19.014 106.476 19.3721C106.684 19.7301 106.849 20.1348 106.97 20.5859C107.092 21.0371 107.153 21.5348 107.153 22.0791V22.6162ZM104.36 22.0791C104.36 21.7139 104.303 21.388 104.188 21.1016C104.074 20.8079 103.913 20.5573 103.705 20.3496C103.497 20.1419 103.247 19.9844 102.953 19.877C102.659 19.7624 102.33 19.7051 101.965 19.7051H95.6697V16.8906H100.708C101.073 16.8906 101.402 16.8369 101.696 16.7295C101.99 16.6149 102.24 16.4538 102.448 16.2461C102.656 16.0384 102.813 15.7913 102.921 15.5049C103.035 15.2113 103.093 14.8818 103.093 14.5166V13.9902C103.093 13.5892 102.899 13.3887 102.512 13.3887H94.5525V23.207H103.769C103.819 23.207 103.88 23.2035 103.952 23.1963C104.024 23.1891 104.088 23.1676 104.145 23.1318C104.203 23.096 104.253 23.0352 104.296 22.9492C104.339 22.8633 104.36 22.7451 104.36 22.5947V22.0791Z" fill="#9A5EBE"/>
<path d="M123.102 22.0791C123.102 22.5589 123.041 22.9922 122.92 23.3789C122.798 23.7585 122.637 24.0951 122.436 24.3887C122.236 24.6751 122.003 24.9222 121.738 25.1299C121.473 25.3304 121.194 25.4951 120.9 25.624C120.614 25.7529 120.32 25.8496 120.019 25.9141C119.726 25.9714 119.446 26 119.181 26H114.143C113.757 26 113.334 25.932 112.876 25.7959C112.417 25.6598 111.991 25.4378 111.597 25.1299C111.211 24.8148 110.885 24.4102 110.62 23.916C110.362 23.4147 110.233 22.8024 110.233 22.0791V18.2979C110.233 17.5817 110.362 16.9766 110.62 16.4824C110.885 15.9811 111.211 15.5765 111.597 15.2686C111.991 14.9535 112.417 14.7279 112.876 14.5918C113.334 14.4557 113.757 14.3877 114.143 14.3877H119.181C119.898 14.3877 120.506 14.5166 121.008 14.7744C121.509 15.0322 121.913 15.3581 122.221 15.752C122.529 16.1387 122.751 16.5612 122.887 17.0195C123.031 17.4779 123.102 17.904 123.102 18.2979V22.0791ZM120.309 18.3193C120.309 17.9326 120.213 17.6462 120.019 17.46C119.826 17.2738 119.547 17.1807 119.181 17.1807H114.165C113.792 17.1807 113.51 17.2773 113.316 17.4707C113.123 17.6569 113.026 17.9326 113.026 18.2979V22.0791C113.026 22.4443 113.123 22.7236 113.316 22.917C113.51 23.1104 113.792 23.207 114.165 23.207H119.181C119.561 23.207 119.844 23.1104 120.03 22.917C120.216 22.7236 120.309 22.4443 120.309 22.0791V18.3193ZM140.127 14.3877L135.11 19.8662L140.761 26H136.915L133.198 21.9502L129.481 26H125.625L131.265 19.8447L126.27 14.3877H130.094L133.177 17.75L136.281 14.3877H140.127Z" fill="white"/>
</svg>
