<svg width="9" height="5" viewBox="0 0 9 5" fill="none" xmlns="http://www.w3.org/2000/svg">
<path d="M0.146328 0.853435C-0.0488684 0.658108 -0.0487626 0.341525 0.146565 0.146329C0.341892 -0.0488684 0.658475 -0.0487626 0.853671 0.146565L4.38802 3.68328C4.58322 3.87861 4.58312 4.19519 4.38779 4.39039C4.19246 4.58558 3.87588 4.58548 3.68068 4.39015L0.146328 0.853435Z" fill="#C4C4C4"/>
<path d="M3.68074 3.68304C3.48542 3.87824 3.48548 4.19482 3.68068 4.39015C3.87588 4.58548 4.19246 4.58558 4.38779 4.39039L7.92433 0.856031C8.11966 0.660834 8.11976 0.344252 7.92457 0.148925C7.72937 -0.0464028 7.41279 -0.0465085 7.21746 0.148688L3.68074 3.68304Z" fill="#C4C4C4"/>
</svg>
