<svg width="5" height="9" viewBox="0 0 5 9" fill="none" xmlns="http://www.w3.org/2000/svg">
<g clip-path="url(#clip0)">
<path d="M4.14657 0.146328C4.34189 -0.0488684 4.65848 -0.0487626 4.85367 0.146565C5.04887 0.341892 5.04876 0.658475 4.85344 0.853671L1.31672 4.38802C1.12139 4.58322 0.80481 4.58312 0.60961 4.38779C0.41442 4.19246 0.41452 3.87588 0.60985 3.68068L4.14657 0.146328Z" fill="#C4C4C4"/>
<path d="M1.31697 3.68065C1.12177 3.48533 0.80519 3.48539 0.60986 3.68059C0.41453 3.87579 0.41443 4.19237 0.60962 4.3877L4.14398 7.92424C4.33918 8.11957 4.65576 8.11967 4.85109 7.92448C5.04641 7.72928 5.04652 7.4127 4.85132 7.21737L1.31697 3.68065Z" fill="#C4C4C4"/>
</g>
<defs>
<clipPath id="clip0">
<rect width="9" height="5" fill="white" transform="translate(5) rotate(90)"/>
</clipPath>
</defs>
</svg>
