<svg width="5" height="9" viewBox="0 0 5 9" fill="none" xmlns="http://www.w3.org/2000/svg">
<g clip-path="url(#clip0)">
<path d="M0.853435 8.85367C0.658108 9.04887 0.341525 9.04876 0.146329 8.85343C-0.0488685 8.65811 -0.0487627 8.34152 0.146565 8.14633L3.68328 4.61198C3.87861 4.41678 4.19519 4.41688 4.39039 4.61221C4.58558 4.80754 4.58548 5.12412 4.39015 5.31932L0.853435 8.85367Z" fill="#C4C4C4"/>
<path d="M3.68303 5.31935C3.87823 5.51467 4.19481 5.51461 4.39014 5.31941C4.58547 5.12421 4.58557 4.80763 4.39038 4.6123L0.856021 1.07576C0.660824 0.880425 0.344242 0.880325 0.148915 1.07552C-0.0464128 1.27072 -0.0465185 1.5873 0.148678 1.78263L3.68303 5.31935Z" fill="#C4C4C4"/>
</g>
<defs>
<clipPath id="clip0">
<rect width="9" height="5" fill="white" transform="translate(0 9) rotate(-90)"/>
</clipPath>
</defs>
</svg>
