<svg width="9" height="5" viewBox="0 0 9 5" fill="none" xmlns="http://www.w3.org/2000/svg">
<path d="M7.92496 3.68328C8.12016 3.8786 8.12005 4.19519 7.92472 4.39038C7.7294 4.58558 7.41281 4.58548 7.21762 4.39015L3.68326 0.853433C3.48807 0.658106 3.48817 0.341523 3.6835 0.146327C3.87883 -0.0488704 4.19541 -0.0487648 4.39061 0.146563L7.92496 3.68328Z" fill="#C4C4C4"/>
<path d="M4.39054 0.853671C4.58587 0.658474 4.5858 0.34189 4.39061 0.146563C4.19541 -0.0487648 3.87883 -0.0488704 3.6835 0.146327L0.146959 3.68068C-0.048368 3.87588 -0.0484736 4.19246 0.146723 4.38779C0.34192 4.58312 0.658503 4.58322 0.85383 4.38802L4.39054 0.853671Z" fill="#C4C4C4"/>
</svg>
