<svg width="7" height="8" viewBox="0 0 7 8" fill="none" xmlns="http://www.w3.org/2000/svg">
<path fill-rule="evenodd" clip-rule="evenodd" d="M0.5 0.5L2.48823 0.5L2.48822 3.026L0.499999 3.026L0.5 0.5ZM0 0.5C0 0.223857 0.223858 0 0.5 0H2.48823C2.76437 0 2.98822 0.223858 2.98822 0.5V3.026C2.98822 3.30214 2.76437 3.526 2.48822 3.526H0.499999C0.223857 3.526 0 3.30214 0 3.026V0.5ZM0.5 4.974L2.48823 4.974L2.48822 7.5L0.499999 7.5L0.5 4.974ZM0 4.974C0 4.69786 0.223858 4.474 0.5 4.474H2.48823C2.76437 4.474 2.98822 4.69786 2.98822 4.974V7.5C2.98822 7.77614 2.76437 8 2.48822 8H0.499999C0.223857 8 0 7.77614 0 7.5V4.974ZM6.5 0.5L4.55606 0.5V3.026L6.5 3.026L6.5 0.5ZM4.55606 0C4.27992 0 4.05606 0.223857 4.05606 0.5V3.026C4.05606 3.30214 4.27992 3.526 4.55606 3.526H6.5C6.77614 3.526 7 3.30214 7 3.026V0.5C7 0.223858 6.77614 0 6.5 0H4.55606ZM4.55606 4.974L6.5 4.974L6.5 7.5L4.55606 7.5V4.974ZM4.05606 4.974C4.05606 4.69786 4.27992 4.474 4.55606 4.474H6.5C6.77614 4.474 7 4.69786 7 4.974V7.5C7 7.77614 6.77614 8 6.5 8H4.55606C4.27992 8 4.05606 7.77614 4.05606 7.5V4.974Z" fill="black"/>
</svg>
