<svg width="7" height="8" viewBox="0 0 7 8" fill="none" xmlns="http://www.w3.org/2000/svg">
<path fill-rule="evenodd" clip-rule="evenodd" d="M0.5 0C0.223858 0 0 0.223857 0 0.5V2.73312C0 3.00926 0.223858 3.23312 0.5 3.23312H2.28606C2.56221 3.23312 2.78606 3.00926 2.78606 2.73312V0.5C2.78606 0.223858 2.56221 0 2.28606 0H0.5ZM0.5 4.76616C0.223858 4.76616 0 4.99002 0 5.26616V7.5C0 7.77614 0.223857 8 0.5 8H2.30066C2.57681 8 2.80066 7.77614 2.80066 7.5V5.26616C2.80066 4.99002 2.57681 4.76616 2.30066 4.76616H0.5ZM4.26071 0.5C4.26071 0.223858 4.48457 0 4.76071 0H6.5C6.77614 0 7 0.223858 7 0.5V2.71851C7 2.99466 6.77614 3.21851 6.5 3.21851H4.76071C4.48457 3.21851 4.26071 2.99466 4.26071 2.71851V0.5ZM4.78991 4.72235C4.51377 4.72235 4.28991 4.94621 4.28991 5.22235V7.49999C4.28991 7.77613 4.51377 7.99999 4.78991 7.99999H6.50001C6.77615 7.99999 7.00001 7.77613 7.00001 7.49999V5.22235C7.00001 4.94621 6.77615 4.72235 6.50001 4.72235H4.78991Z" fill="black"/>
</svg>
