<svg width="7" height="8" viewBox="0 0 7 8" fill="none" xmlns="http://www.w3.org/2000/svg">
<path fill-rule="evenodd" clip-rule="evenodd" d="M0.5 0.225403C0.223858 0.225403 0 0.44926 0 0.725402V1.31685C0 1.59299 0.223858 1.81685 0.5 1.81685H6.5C6.77614 1.81685 7 1.59299 7 1.31685V0.725403C7 0.44926 6.77614 0.225403 6.5 0.225403H0.5ZM0 3.70391C0 3.42777 0.223858 3.20391 0.5 3.20391H6.5C6.77614 3.20391 7 3.42777 7 3.70391V4.29535C7 4.5715 6.77614 4.79535 6.5 4.79535H0.5C0.223858 4.79535 0 4.57149 0 4.29535V3.70391ZM0 6.7116C0 6.43546 0.223858 6.2116 0.5 6.2116H6.5C6.77614 6.2116 7 6.43546 7 6.7116V7.27384C7 7.54999 6.77614 7.77384 6.5 7.77384H0.5C0.223858 7.77384 0 7.54999 0 7.27384V6.7116Z" fill="black"/>
</svg>
