<svg width="7" height="8" viewBox="0 0 7 8" fill="none" xmlns="http://www.w3.org/2000/svg">
<path fill-rule="evenodd" clip-rule="evenodd" d="M0.5 0.5H6.5V1.5H0.5V0.5ZM0 0.5C0 0.223858 0.223858 0 0.5 0H6.5C6.77614 0 7 0.223858 7 0.5V1.5C7 1.77614 6.77614 2 6.5 2H0.5C0.223858 2 0 1.77614 0 1.5V0.5ZM6.5 3.5H0.5V4.5H6.5V3.5ZM0.5 3C0.223858 3 0 3.22386 0 3.5V4.5C0 4.77614 0.223858 5 0.5 5H6.5C6.77614 5 7 4.77614 7 4.5V3.5C7 3.22386 6.77614 3 6.5 3H0.5ZM6.5 6.5H0.5V7.5H6.5V6.5ZM0.5 6C0.223858 6 0 6.22386 0 6.5V7.5C0 7.77614 0.223858 8 0.5 8H6.5C6.77614 8 7 7.77614 7 7.5V6.5C7 6.22386 6.77614 6 6.5 6H0.5Z" fill="black"/>
</svg>
