<svg width="20" height="20" viewBox="0 0 20 20" fill="transparent !important" xmlns="http://www.w3.org/2000/svg">
<path d="M18.9876 7.00981L18.9879 7.00984C19.213 7.03012 19.4028 7.18207 19.4721 7.39658L19.9479 7.24277L19.4723 7.39712C19.5422 7.61246 19.4774 7.84722 19.3069 7.99641L19.3065 7.99677L14.9431 11.8227L14.7193 12.019L14.7852 12.3093L16.0718 17.9768C16.1218 18.198 16.0361 18.426 15.8526 18.559L15.8526 18.559C15.6695 18.6917 15.4273 18.7018 15.2354 18.5863L15.2342 18.5856L10.2567 15.6096L10.0001 15.4562L9.74359 15.6096L4.76421 18.5856L4.76399 18.5857C4.67309 18.6401 4.57425 18.6664 4.47582 18.6664C4.36115 18.6664 4.24627 18.6309 4.14606 18.5585C3.9636 18.4266 3.87738 18.1992 3.92753 17.9768C3.92755 17.9767 3.92757 17.9766 3.92758 17.9765L5.21412 12.3093L5.28003 12.019L5.05621 11.8227L0.692846 7.99603L0.691898 7.99521C0.522709 7.84758 0.457787 7.61279 0.52783 7.39739C0.597804 7.18219 0.787281 7.03066 1.01229 7.00976C1.01237 7.00975 1.01246 7.00974 1.01254 7.00973L6.78519 6.48565L7.08247 6.45867L7.19976 6.18417L9.48212 0.842989C9.48218 0.842853 9.48224 0.842717 9.4823 0.842582C9.57225 0.633273 9.77527 0.5 10.0001 0.5C10.2251 0.5 10.4281 0.63342 10.518 0.841897C10.5181 0.842085 10.5182 0.842273 10.5182 0.842462L12.8004 6.18414L12.9177 6.45866L13.215 6.48565L18.9876 7.00981Z" />
</svg>
