<svg width="142" height="34" viewBox="0 0 142 34" fill="none" xmlns="http://www.w3.org/2000/svg">
<path d="M25.291 10.5957L22.7129 25.0332C22.6556 25.3197 22.5267 25.5667 22.3262 25.7744C22.1257 25.9821 21.8822 26.1146 21.5957 26.1719C21.3021 26.222 21.0228 26.1898 20.7578 26.0752C20.5 25.9606 20.2959 25.7816 20.1455 25.5381L15.0322 17.1377L9.9082 25.5381C9.78646 25.7458 9.61816 25.9069 9.40332 26.0215C9.19564 26.1361 8.97005 26.1934 8.72656 26.1934C8.38997 26.1934 8.09277 26.0859 7.83496 25.8711C7.57715 25.6562 7.4196 25.377 7.3623 25.0332L4.7627 10.5957H7.59863L9.44629 20.7686L13.8506 13.7432C13.9723 13.5355 14.137 13.3743 14.3447 13.2598C14.5596 13.1452 14.7887 13.0879 15.0322 13.0879C15.2757 13.0879 15.5013 13.1452 15.709 13.2598C15.9167 13.3743 16.0885 13.5355 16.2246 13.7432L20.6074 20.7686L22.4551 10.5957H25.291ZM40.7151 22.1543C40.7151 22.541 40.647 22.96 40.511 23.4111C40.3749 23.8551 40.1529 24.2705 39.845 24.6572C39.5442 25.0368 39.1467 25.3555 38.6526 25.6133C38.1656 25.8711 37.5712 26 36.8694 26H31.8313C31.4446 26 31.0256 25.932 30.5745 25.7959C30.1304 25.6598 29.7151 25.4414 29.3284 25.1406C28.9488 24.8327 28.6301 24.4352 28.3723 23.9482C28.1145 23.4541 27.9856 22.8561 27.9856 22.1543C27.9856 21.7676 28.0536 21.3486 28.1897 20.8975C28.3258 20.4463 28.5442 20.0309 28.845 19.6514C29.1529 19.2646 29.5504 18.9424 30.0373 18.6846C30.5315 18.4268 31.1295 18.2979 31.8313 18.2979H36.8694V20.9619H31.8313C31.4517 20.9619 31.1581 21.0801 30.9504 21.3164C30.7427 21.5456 30.6389 21.832 30.6389 22.1758C30.6389 22.541 30.7571 22.8275 30.9934 23.0352C31.2369 23.2357 31.5233 23.3359 31.8528 23.3359H36.8694C37.2489 23.3359 37.5426 23.2214 37.7502 22.9922C37.9579 22.763 38.0618 22.4766 38.0618 22.1328V18.2334C38.0618 17.8682 37.9472 17.5781 37.718 17.3633C37.496 17.1484 37.2131 17.041 36.8694 17.041H30.7356V14.3877H36.8694C37.2561 14.3877 37.6715 14.4557 38.1155 14.5918C38.5666 14.7279 38.982 14.9499 39.3616 15.2578C39.7483 15.5586 40.0705 15.9561 40.3284 16.4502C40.5862 16.9372 40.7151 17.5316 40.7151 18.2334V22.1543ZM55.3764 17.1807H50.4995V26H47.6743V17.1807H44.0434V14.3877H47.6743V10.5957H50.4995V14.3877H55.3764V17.1807ZM70.1775 26H62.6042C62.2175 26 61.795 25.932 61.3366 25.7959C60.8783 25.6598 60.4522 25.4378 60.0583 25.1299C59.6716 24.8148 59.3458 24.4102 59.0808 23.916C58.823 23.4147 58.6941 22.8024 58.6941 22.0791V18.2979C58.6941 18.0329 58.7227 17.7536 58.78 17.46C58.8445 17.1663 58.9411 16.8763 59.07 16.5898C59.1989 16.2962 59.3637 16.0169 59.5642 15.752C59.7719 15.487 60.0189 15.2542 60.3054 15.0537C60.599 14.8532 60.9356 14.6921 61.3152 14.5703C61.6947 14.4486 62.1244 14.3877 62.6042 14.3877H70.1775V17.1807H62.6042C62.239 17.1807 61.9597 17.2738 61.7663 17.46C61.5801 17.6462 61.487 17.9326 61.487 18.3193V22.0791C61.487 22.4443 61.5837 22.7236 61.7771 22.917C61.9704 23.1104 62.2533 23.207 62.6257 23.207H70.1775V26ZM87.1591 26H84.3662V18.2979C84.3662 17.9326 84.2731 17.6569 84.0869 17.4707C83.9007 17.2773 83.6214 17.1807 83.249 17.1807H78.2109V14.3877H83.249C83.514 14.3877 83.7933 14.4199 84.0869 14.4844C84.3805 14.5417 84.6705 14.6348 84.957 14.7637C85.2506 14.8926 85.5299 15.0609 85.7949 15.2686C86.0599 15.4691 86.2926 15.7161 86.4931 16.0098C86.6936 16.2962 86.8548 16.6292 86.9765 17.0088C87.0983 17.3883 87.1591 17.818 87.1591 18.2979V26ZM77.083 26H74.29V9.47852H77.083V26ZM107.159 22.6162C107.159 22.96 107.099 23.3288 106.977 23.7227C106.862 24.1165 106.669 24.4818 106.397 24.8184C106.132 25.1549 105.784 25.4378 105.355 25.667C104.925 25.889 104.399 26 103.776 26H93.173C92.9725 26 92.7863 25.9642 92.6145 25.8926C92.4426 25.821 92.2922 25.7243 92.1633 25.6025C92.0415 25.4736 91.9449 25.3232 91.8732 25.1514C91.8016 24.9795 91.7658 24.7933 91.7658 24.5928V12.0029C91.7658 11.8096 91.8016 11.627 91.8732 11.4551C91.9449 11.2832 92.0415 11.1328 92.1633 11.0039C92.2922 10.875 92.4426 10.7747 92.6145 10.7031C92.7863 10.6315 92.9725 10.5957 93.173 10.5957H102.519C102.863 10.5957 103.231 10.6566 103.625 10.7783C104.019 10.9001 104.384 11.097 104.721 11.3691C105.065 11.6341 105.348 11.9814 105.57 12.4111C105.799 12.8408 105.913 13.3672 105.913 13.9902V14.5166C105.913 15.0107 105.831 15.5443 105.666 16.1172C105.502 16.6829 105.237 17.2201 104.871 17.7285C105.186 17.9219 105.48 18.1546 105.752 18.4268C106.031 18.6989 106.275 19.014 106.483 19.3721C106.69 19.7301 106.855 20.1348 106.977 20.5859C107.099 21.0371 107.159 21.5348 107.159 22.0791V22.6162ZM104.366 22.0791C104.366 21.7139 104.309 21.388 104.195 21.1016C104.08 20.8079 103.919 20.5573 103.711 20.3496C103.503 20.1419 103.253 19.9844 102.959 19.877C102.666 19.7624 102.336 19.7051 101.971 19.7051H95.676V16.8906H100.714C101.079 16.8906 101.409 16.8369 101.702 16.7295C101.996 16.6149 102.247 16.4538 102.454 16.2461C102.662 16.0384 102.82 15.7913 102.927 15.5049C103.042 15.2113 103.099 14.8818 103.099 14.5166V13.9902C103.099 13.5892 102.905 13.3887 102.519 13.3887H94.5588V23.207H103.776C103.826 23.207 103.887 23.2035 103.958 23.1963C104.03 23.1891 104.094 23.1676 104.152 23.1318C104.209 23.096 104.259 23.0352 104.302 22.9492C104.345 22.8633 104.366 22.7451 104.366 22.5947V22.0791ZM123.679 22.0791C123.679 22.5589 123.618 22.9922 123.497 23.3789C123.375 23.7585 123.214 24.0951 123.013 24.3887C122.813 24.6751 122.58 24.9222 122.315 25.1299C122.05 25.3304 121.771 25.4951 121.477 25.624C121.191 25.7529 120.897 25.8496 120.596 25.9141C120.303 25.9714 120.023 26 119.758 26H114.72C114.333 26 113.911 25.932 113.453 25.7959C112.994 25.6598 112.568 25.4378 112.174 25.1299C111.788 24.8148 111.462 24.4102 111.197 23.916C110.939 23.4147 110.81 22.8024 110.81 22.0791V18.2979C110.81 17.5817 110.939 16.9766 111.197 16.4824C111.462 15.9811 111.788 15.5765 112.174 15.2686C112.568 14.9535 112.994 14.7279 113.453 14.5918C113.911 14.4557 114.333 14.3877 114.72 14.3877H119.758C120.474 14.3877 121.083 14.5166 121.584 14.7744C122.086 15.0322 122.49 15.3581 122.798 15.752C123.106 16.1387 123.328 16.5612 123.464 17.0195C123.608 17.4779 123.679 17.904 123.679 18.2979V22.0791ZM120.886 18.3193C120.886 17.9326 120.789 17.6462 120.596 17.46C120.403 17.2738 120.123 17.1807 119.758 17.1807H114.742C114.369 17.1807 114.086 17.2773 113.893 17.4707C113.7 17.6569 113.603 17.9326 113.603 18.2979V22.0791C113.603 22.4443 113.7 22.7236 113.893 22.917C114.086 23.1104 114.369 23.207 114.742 23.207H119.758C120.138 23.207 120.421 23.1104 120.607 22.917C120.793 22.7236 120.886 22.4443 120.886 22.0791V18.3193ZM140.704 14.3877L135.687 19.8662L141.338 26H137.492L133.775 21.9502L130.058 26H126.202L131.841 19.8447L126.846 14.3877H130.671L133.754 17.75L136.858 14.3877H140.704Z" fill="white"/>
<path d="M25.291 10.5957L22.7129 25.0332C22.6556 25.3197 22.5267 25.5667 22.3262 25.7744C22.1257 25.9821 21.8822 26.1146 21.5957 26.1719C21.3021 26.222 21.0228 26.1898 20.7578 26.0752C20.5 25.9606 20.2959 25.7816 20.1455 25.5381L15.0322 17.1377L9.9082 25.5381C9.78646 25.7458 9.61816 25.9069 9.40332 26.0215C9.19564 26.1361 8.97005 26.1934 8.72656 26.1934C8.38997 26.1934 8.09277 26.0859 7.83496 25.8711C7.57715 25.6562 7.4196 25.377 7.3623 25.0332L4.7627 10.5957H7.59863L9.44629 20.7686L13.8506 13.7432C13.9723 13.5355 14.137 13.3743 14.3447 13.2598C14.5596 13.1452 14.7887 13.0879 15.0322 13.0879C15.2757 13.0879 15.5013 13.1452 15.709 13.2598C15.9167 13.3743 16.0885 13.5355 16.2246 13.7432L20.6074 20.7686L22.4551 10.5957H25.291Z" fill="#9A5EBE"/>
<path d="M107.153 22.6162C107.153 22.96 107.092 23.3288 106.97 23.7227C106.856 24.1165 106.663 24.4818 106.39 24.8184C106.125 25.1549 105.778 25.4378 105.348 25.667C104.919 25.889 104.392 26 103.769 26H93.1667C92.9662 26 92.78 25.9642 92.6082 25.8926C92.4363 25.821 92.2859 25.7243 92.157 25.6025C92.0352 25.4736 91.9386 25.3232 91.8669 25.1514C91.7953 24.9795 91.7595 24.7933 91.7595 24.5928V12.0029C91.7595 11.8096 91.7953 11.627 91.8669 11.4551C91.9386 11.2832 92.0352 11.1328 92.157 11.0039C92.2859 10.875 92.4363 10.7747 92.6082 10.7031C92.78 10.6315 92.9662 10.5957 93.1667 10.5957H102.512C102.856 10.5957 103.225 10.6566 103.619 10.7783C104.013 10.9001 104.378 11.097 104.715 11.3691C105.058 11.6341 105.341 11.9814 105.563 12.4111C105.792 12.8408 105.907 13.3672 105.907 13.9902V14.5166C105.907 15.0107 105.825 15.5443 105.66 16.1172C105.495 16.6829 105.23 17.2201 104.865 17.7285C105.18 17.9219 105.474 18.1546 105.746 18.4268C106.025 18.6989 106.269 19.014 106.476 19.3721C106.684 19.7301 106.849 20.1348 106.97 20.5859C107.092 21.0371 107.153 21.5348 107.153 22.0791V22.6162ZM104.36 22.0791C104.36 21.7139 104.303 21.388 104.188 21.1016C104.074 20.8079 103.913 20.5573 103.705 20.3496C103.497 20.1419 103.247 19.9844 102.953 19.877C102.659 19.7624 102.33 19.7051 101.965 19.7051H95.6697V16.8906H100.708C101.073 16.8906 101.402 16.8369 101.696 16.7295C101.99 16.6149 102.24 16.4538 102.448 16.2461C102.656 16.0384 102.813 15.7913 102.921 15.5049C103.035 15.2113 103.093 14.8818 103.093 14.5166V13.9902C103.093 13.5892 102.899 13.3887 102.512 13.3887H94.5525V23.207H103.769C103.819 23.207 103.88 23.2035 103.952 23.1963C104.024 23.1891 104.088 23.1676 104.145 23.1318C104.203 23.096 104.253 23.0352 104.296 22.9492C104.339 22.8633 104.36 22.7451 104.36 22.5947V22.0791Z" fill="#9A5EBE"/>
</svg>
